<svg width="412" height="66" viewBox="0 0 412 66" fill="none" xmlns="http://www.w3.org/2000/svg">
<path d="M8.901 23.776C7.015 23.776 5.46633 23.408 4.255 22.672C3.04367 21.936 2.16967 21.0083 1.633 19.889C1.09633 18.7543 0.828 17.5583 0.828 16.301C0.828 14.783 1.196 13.4643 1.932 12.345C2.68333 11.2103 3.67233 10.3517 4.899 9.769C6.141 9.171 7.48267 8.872 8.924 8.872C9.62933 8.872 10.3653 8.941 11.132 9.079C11.8987 9.20167 12.5197 9.355 12.995 9.539C13.1177 9.61567 13.1943 9.68467 13.225 9.746C13.271 9.80733 13.294 9.91467 13.294 10.068L13.455 13.15C13.455 13.196 13.4167 13.219 13.34 13.219C13.2787 13.219 13.2327 13.196 13.202 13.15C12.6347 11.9847 11.9063 11.0877 11.017 10.459C10.143 9.815 9.14633 9.493 8.027 9.493C6.57033 9.493 5.451 10.022 4.669 11.08C3.90233 12.138 3.519 13.6253 3.519 15.542C3.519 16.922 3.75667 18.21 4.232 19.406C4.72267 20.602 5.382 21.5527 6.21 22.258C7.038 22.9633 7.95033 23.316 8.947 23.316C10.5263 23.316 11.9983 22.1507 13.363 19.82C13.3937 19.774 13.432 19.751 13.478 19.751C13.57 19.751 13.616 19.797 13.616 19.889L13.478 22.534C13.4473 22.7333 13.4167 22.8637 13.386 22.925C13.3553 22.971 13.271 23.017 13.133 23.063C11.7837 23.5383 10.373 23.776 8.901 23.776ZM26.3986 21.729C26.4139 21.7137 26.4369 21.706 26.4676 21.706C26.5136 21.706 26.5596 21.7367 26.6056 21.798C26.6516 21.844 26.6669 21.8823 26.6516 21.913C26.2223 22.511 25.8083 22.9633 25.4096 23.27C25.0109 23.5613 24.6046 23.707 24.1906 23.707C23.6386 23.707 23.2246 23.523 22.9486 23.155C22.6726 22.787 22.5346 22.2197 22.5346 21.453V19.889C22.1206 21.1157 21.5379 22.074 20.7866 22.764C20.0353 23.454 19.2379 23.799 18.3946 23.799C17.7659 23.799 17.2523 23.592 16.8536 23.178C16.4703 22.7487 16.2786 22.097 16.2786 21.223C16.2786 20.211 16.5546 19.1683 17.1066 18.095C17.6586 17.0063 18.3639 16.1093 19.2226 15.404C20.0966 14.6833 20.9859 14.323 21.8906 14.323C22.2126 14.323 22.5423 14.3767 22.8796 14.484C23.2323 14.576 23.5466 14.7217 23.8226 14.921C24.1139 14.691 24.3286 14.4303 24.4666 14.139C24.4973 14.1083 24.5279 14.093 24.5586 14.093C24.6046 14.093 24.6506 14.1083 24.6966 14.139C24.7579 14.1697 24.7809 14.1927 24.7656 14.208L24.7196 21.453C24.7043 21.8057 24.7349 22.074 24.8116 22.258C24.9036 22.442 25.0339 22.534 25.2026 22.534C25.3559 22.534 25.5399 22.465 25.7546 22.327C25.9693 22.1737 26.1839 21.9743 26.3986 21.729ZM19.7056 22.12C20.2116 22.12 20.6793 21.8747 21.1086 21.384C21.5533 20.8933 21.8983 20.2953 22.1436 19.59C22.4043 18.8693 22.5346 18.21 22.5346 17.612C22.5346 16.9373 22.3736 16.4083 22.0516 16.025C21.7449 15.6417 21.3233 15.45 20.7866 15.45C20.0046 15.45 19.3913 15.8333 18.9466 16.6C18.5019 17.3513 18.2796 18.3327 18.2796 19.544C18.2949 20.4487 18.4329 21.108 18.6936 21.522C18.9543 21.9207 19.2916 22.12 19.7056 22.12ZM34.6915 21.637C34.7375 21.637 34.7835 21.6677 34.8295 21.729C34.8755 21.775 34.8832 21.821 34.8525 21.867C34.1932 22.5417 33.5952 23.0323 33.0585 23.339C32.5219 23.6303 31.9622 23.776 31.3795 23.776C29.7235 23.776 28.9109 22.9633 28.9415 21.338L28.9645 16.462C28.9799 15.9713 28.9109 15.6493 28.7575 15.496C28.6042 15.3273 28.2899 15.243 27.8145 15.243C27.7532 15.243 27.7149 15.1817 27.6995 15.059C27.6995 14.9363 27.7225 14.875 27.7685 14.875C29.1485 14.875 30.0915 14.2003 30.5975 12.851C30.6282 12.805 30.6895 12.782 30.7815 12.782C30.8582 12.782 30.9272 12.7973 30.9885 12.828C31.0652 12.8587 31.1035 12.8893 31.1035 12.92V14.806C31.7322 14.7753 32.7289 14.714 34.0935 14.622C34.1702 14.622 34.2315 14.6527 34.2775 14.714C34.3235 14.7753 34.3465 14.8367 34.3465 14.898C34.3312 15.0667 34.2469 15.2583 34.0935 15.473C33.9555 15.6723 33.8022 15.7643 33.6335 15.749C32.6675 15.5957 31.8242 15.5037 31.1035 15.473L31.0805 20.947C31.0805 21.4837 31.2032 21.8823 31.4485 22.143C31.7092 22.3883 32.1079 22.511 32.6445 22.511C33.3192 22.511 33.9939 22.2197 34.6685 21.637H34.6915ZM43.9683 22.051C44.0143 22.051 44.0603 22.074 44.1063 22.12C44.1523 22.166 44.1599 22.2043 44.1293 22.235C43.6386 22.7717 43.0789 23.1627 42.4503 23.408C41.8216 23.6533 41.1776 23.776 40.5183 23.776C39.5983 23.776 38.8163 23.569 38.1723 23.155C37.5283 22.741 37.0453 22.1967 36.7233 21.522C36.4013 20.8473 36.2403 20.1267 36.2403 19.36C36.2403 18.532 36.4549 17.7347 36.8843 16.968C37.3136 16.186 37.9193 15.5497 38.7013 15.059C39.4986 14.5683 40.4109 14.323 41.4383 14.323C42.1283 14.323 42.6649 14.4303 43.0483 14.645C43.4469 14.8597 43.6693 15.1663 43.7153 15.565C43.7766 16.2397 43.3013 16.8683 42.2893 17.451C41.2773 18.0337 40.0276 18.4553 38.5403 18.716C38.6016 19.8967 38.9083 20.8703 39.4603 21.637C40.0276 22.3883 40.7943 22.764 41.7603 22.764C42.1283 22.764 42.5039 22.7103 42.8873 22.603C43.2706 22.4803 43.6156 22.2963 43.9223 22.051H43.9683ZM40.2423 14.944C39.7056 14.944 39.2839 15.266 38.9773 15.91C38.6859 16.5387 38.5403 17.3513 38.5403 18.348C40.3956 17.9187 41.2926 17.152 41.2313 16.048C41.2313 15.7107 41.1393 15.4423 40.9553 15.243C40.7866 15.0437 40.5489 14.944 40.2423 14.944ZM57.075 21.683C57.1364 21.683 57.19 21.7137 57.236 21.775C57.282 21.821 57.2897 21.867 57.259 21.913C56.799 22.5417 56.3774 23.0017 55.994 23.293C55.6107 23.569 55.1814 23.707 54.706 23.707C54.154 23.707 53.7554 23.523 53.51 23.155C53.2647 22.7717 53.1497 22.2043 53.165 21.453L53.211 17.796C53.211 16.3547 52.843 15.634 52.107 15.634C51.6164 15.634 51.1717 15.91 50.773 16.462C50.3744 17.014 50.0524 17.8343 49.807 18.923C49.577 19.9963 49.4544 21.2767 49.439 22.764V23.224C49.439 23.362 49.324 23.4693 49.094 23.546C48.8794 23.638 48.5497 23.684 48.105 23.684C47.5684 23.684 47.2847 23.6227 47.254 23.5V22.971C47.2847 22.5417 47.3 22.1507 47.3 21.798L47.346 16.669C47.346 15.9177 47.1467 15.542 46.748 15.542C46.4107 15.542 45.989 15.8487 45.483 16.462C45.4677 16.4773 45.4447 16.485 45.414 16.485C45.3527 16.485 45.299 16.462 45.253 16.416C45.207 16.3547 45.1994 16.301 45.23 16.255C45.69 15.611 46.1347 15.1433 46.564 14.852C46.9934 14.5607 47.4457 14.415 47.921 14.415C48.4577 14.415 48.841 14.5837 49.071 14.921C49.3164 15.243 49.4467 15.7337 49.462 16.393V18.509C49.784 17.175 50.2594 16.1477 50.888 15.427C51.5167 14.691 52.2604 14.323 53.119 14.323C54.591 14.323 55.327 15.335 55.327 17.359L55.304 21.453C55.2887 22.1737 55.465 22.534 55.833 22.534C56.0017 22.534 56.1704 22.465 56.339 22.327C56.523 22.189 56.7377 21.9897 56.983 21.729L57.075 21.683ZM68.8911 21.729C68.9064 21.7137 68.9294 21.706 68.9601 21.706C69.0061 21.706 69.0521 21.7367 69.0981 21.798C69.1441 21.844 69.1594 21.8823 69.1441 21.913C68.7148 22.511 68.3008 22.9633 67.9021 23.27C67.5034 23.5613 67.0971 23.707 66.6831 23.707C66.1311 23.707 65.7171 23.523 65.4411 23.155C65.1651 22.787 65.0271 22.2197 65.0271 21.453V19.889C64.6131 21.1157 64.0304 22.074 63.2791 22.764C62.5278 23.454 61.7304 23.799 60.8871 23.799C60.2584 23.799 59.7448 23.592 59.3461 23.178C58.9628 22.7487 58.7711 22.097 58.7711 21.223C58.7711 20.211 59.0471 19.1683 59.5991 18.095C60.1511 17.0063 60.8564 16.1093 61.7151 15.404C62.5891 14.6833 63.4784 14.323 64.3831 14.323C64.7051 14.323 65.0348 14.3767 65.3721 14.484C65.7248 14.576 66.0391 14.7217 66.3151 14.921C66.6064 14.691 66.8211 14.4303 66.9591 14.139C66.9898 14.1083 67.0204 14.093 67.0511 14.093C67.0971 14.093 67.1431 14.1083 67.1891 14.139C67.2504 14.1697 67.2734 14.1927 67.2581 14.208L67.2121 21.453C67.1968 21.8057 67.2274 22.074 67.3041 22.258C67.3961 22.442 67.5264 22.534 67.6951 22.534C67.8484 22.534 68.0324 22.465 68.2471 22.327C68.4618 22.1737 68.6764 21.9743 68.8911 21.729ZM62.1981 22.12C62.7041 22.12 63.1718 21.8747 63.6011 21.384C64.0458 20.8933 64.3908 20.2953 64.6361 19.59C64.8968 18.8693 65.0271 18.21 65.0271 17.612C65.0271 16.9373 64.8661 16.4083 64.5441 16.025C64.2374 15.6417 63.8158 15.45 63.2791 15.45C62.4971 15.45 61.8838 15.8333 61.4391 16.6C60.9944 17.3513 60.7721 18.3327 60.7721 19.544C60.7874 20.4487 60.9254 21.108 61.1861 21.522C61.4468 21.9207 61.7841 22.12 62.1981 22.12ZM94.1437 23.224C94.1897 23.224 94.2127 23.27 94.2127 23.362C94.228 23.454 94.205 23.5 94.1437 23.5C93.6837 23.5 93.3157 23.4923 93.0397 23.477L91.3377 23.454L89.7047 23.477C89.4287 23.4923 89.0377 23.5 88.5317 23.5C88.4857 23.5 88.4627 23.454 88.4627 23.362C88.4627 23.27 88.4857 23.224 88.5317 23.224C89.007 23.224 89.352 23.1857 89.5667 23.109C89.7967 23.0323 89.95 22.8867 90.0267 22.672C90.1033 22.442 90.1263 22.097 90.0957 21.637L89.7737 10.666L85.3577 23.339C85.327 23.4003 85.2733 23.431 85.1967 23.431C85.1047 23.431 85.0357 23.3927 84.9897 23.316L79.8837 11.241L79.8377 20.51C79.807 21.3533 79.9527 22.0203 80.2747 22.511C80.612 22.9863 81.072 23.224 81.6547 23.224C81.7007 23.224 81.7237 23.27 81.7237 23.362C81.7237 23.454 81.7007 23.5 81.6547 23.5C81.2713 23.5 80.9647 23.4923 80.7347 23.477L79.3777 23.454L78.1817 23.477C77.9517 23.4923 77.622 23.5 77.1927 23.5C77.162 23.5 77.1467 23.454 77.1467 23.362C77.1467 23.27 77.162 23.224 77.1927 23.224C77.7753 23.224 78.2353 22.9863 78.5727 22.511C78.9253 22.0357 79.1017 21.3917 79.1017 20.579L79.2167 10.16C78.7413 9.654 78.0973 9.401 77.2847 9.401C77.2387 9.401 77.2157 9.355 77.2157 9.263C77.2157 9.171 77.2387 9.125 77.2847 9.125C77.5147 9.125 77.7063 9.13267 77.8597 9.148L78.8487 9.171L80.3667 9.148C80.5353 9.13267 80.7423 9.125 80.9877 9.125C81.187 9.125 81.348 9.20167 81.4707 9.355C81.6087 9.50833 81.7773 9.83033 81.9767 10.321L86.0247 19.774L89.4977 9.7C89.5437 9.53133 89.6357 9.39333 89.7737 9.286C89.927 9.17867 90.1033 9.125 90.3027 9.125C90.548 9.125 90.755 9.13267 90.9237 9.148L91.9587 9.171L92.9937 9.148C93.147 9.13267 93.3693 9.125 93.6607 9.125C93.7067 9.125 93.7297 9.171 93.7297 9.263C93.7297 9.355 93.7143 9.401 93.6837 9.401C93.193 9.401 92.825 9.48533 92.5797 9.654C92.3497 9.80733 92.2347 10.1063 92.2347 10.551C92.2347 10.7197 92.2423 10.85 92.2577 10.942L92.5797 21.637C92.6103 22.097 92.664 22.442 92.7407 22.672C92.8327 22.8867 92.9783 23.0323 93.1777 23.109C93.377 23.1857 93.699 23.224 94.1437 23.224ZM106.488 21.729C106.503 21.7137 106.526 21.706 106.557 21.706C106.603 21.706 106.649 21.7367 106.695 21.798C106.741 21.844 106.756 21.8823 106.741 21.913C106.312 22.511 105.898 22.9633 105.499 23.27C105.1 23.5613 104.694 23.707 104.28 23.707C103.728 23.707 103.314 23.523 103.038 23.155C102.762 22.787 102.624 22.2197 102.624 21.453V19.889C102.21 21.1157 101.627 22.074 100.876 22.764C100.125 23.454 99.3274 23.799 98.484 23.799C97.8554 23.799 97.3417 23.592 96.943 23.178C96.5597 22.7487 96.368 22.097 96.368 21.223C96.368 20.211 96.644 19.1683 97.196 18.095C97.748 17.0063 98.4534 16.1093 99.312 15.404C100.186 14.6833 101.075 14.323 101.98 14.323C102.302 14.323 102.632 14.3767 102.969 14.484C103.322 14.576 103.636 14.7217 103.912 14.921C104.203 14.691 104.418 14.4303 104.556 14.139C104.587 14.1083 104.617 14.093 104.648 14.093C104.694 14.093 104.74 14.1083 104.786 14.139C104.847 14.1697 104.87 14.1927 104.855 14.208L104.809 21.453C104.794 21.8057 104.824 22.074 104.901 22.258C104.993 22.442 105.123 22.534 105.292 22.534C105.445 22.534 105.629 22.465 105.844 22.327C106.059 22.1737 106.273 21.9743 106.488 21.729ZM99.795 22.12C100.301 22.12 100.769 21.8747 101.198 21.384C101.643 20.8933 101.988 20.2953 102.233 19.59C102.494 18.8693 102.624 18.21 102.624 17.612C102.624 16.9373 102.463 16.4083 102.141 16.025C101.834 15.6417 101.413 15.45 100.876 15.45C100.094 15.45 99.4807 15.8333 99.036 16.6C98.5914 17.3513 98.369 18.3327 98.369 19.544C98.3844 20.4487 98.5224 21.108 98.783 21.522C99.0437 21.9207 99.381 22.12 99.795 22.12ZM110.641 23.707C110.089 23.707 109.69 23.523 109.445 23.155C109.2 22.7717 109.085 22.2043 109.1 21.453L109.169 9.953C109.184 9.46233 109.138 9.10967 109.031 8.895C108.924 8.665 108.74 8.55 108.479 8.55C108.203 8.55 107.866 8.64967 107.467 8.849H107.421C107.344 8.849 107.298 8.81067 107.283 8.734C107.252 8.642 107.268 8.58833 107.329 8.573L110.94 6.825H110.986C111.047 6.825 111.109 6.848 111.17 6.894C111.231 6.94 111.262 6.97833 111.262 7.009L111.239 21.453C111.208 22.1737 111.385 22.534 111.768 22.534C111.921 22.534 112.09 22.465 112.274 22.327C112.473 22.189 112.696 21.9897 112.941 21.729C112.972 21.6983 113.002 21.683 113.033 21.683C113.079 21.683 113.117 21.7137 113.148 21.775C113.194 21.821 113.209 21.867 113.194 21.913C112.734 22.5417 112.312 23.0017 111.929 23.293C111.546 23.569 111.116 23.707 110.641 23.707ZM122.251 14.323C123.033 14.323 123.661 14.6373 124.137 15.266C124.627 15.8947 124.88 16.715 124.896 17.727C124.896 18.969 124.589 20.05 123.976 20.97C123.362 21.89 122.603 22.5953 121.699 23.086C120.794 23.5613 119.92 23.799 119.077 23.799C118.08 23.799 117.283 23.592 116.685 23.178C116.102 22.764 115.818 22.2043 115.834 21.499L115.926 9.953C115.941 9.46233 115.887 9.10967 115.765 8.895C115.657 8.665 115.473 8.55 115.213 8.55C114.937 8.55 114.599 8.64967 114.201 8.849H114.155C114.093 8.849 114.047 8.81067 114.017 8.734C113.986 8.65733 114.001 8.60367 114.063 8.573L117.697 6.825H117.743C117.804 6.825 117.865 6.848 117.927 6.894C117.988 6.94 118.019 6.97833 118.019 7.009V18.141C118.356 17.0063 118.9 16.0863 119.652 15.381C120.418 14.6757 121.285 14.323 122.251 14.323ZM119.882 23.155C120.388 23.155 120.848 22.971 121.262 22.603C121.676 22.2197 121.998 21.6753 122.228 20.97C122.473 20.2493 122.588 19.406 122.573 18.44C122.603 17.6887 122.488 17.0753 122.228 16.6C121.967 16.1093 121.584 15.864 121.078 15.864C120.48 15.864 119.951 16.0863 119.491 16.531C119.031 16.9757 118.67 17.5967 118.41 18.394C118.149 19.1913 118.019 20.1037 118.019 21.131V21.292C118.019 21.8287 118.195 22.2733 118.548 22.626C118.916 22.9787 119.36 23.155 119.882 23.155ZM134.771 22.051C134.817 22.051 134.863 22.074 134.909 22.12C134.955 22.166 134.962 22.2043 134.932 22.235C134.441 22.7717 133.881 23.1627 133.253 23.408C132.624 23.6533 131.98 23.776 131.321 23.776C130.401 23.776 129.619 23.569 128.975 23.155C128.331 22.741 127.848 22.1967 127.526 21.522C127.204 20.8473 127.043 20.1267 127.043 19.36C127.043 18.532 127.257 17.7347 127.687 16.968C128.116 16.186 128.722 15.5497 129.504 15.059C130.301 14.5683 131.213 14.323 132.241 14.323C132.931 14.323 133.467 14.4303 133.851 14.645C134.249 14.8597 134.472 15.1663 134.518 15.565C134.579 16.2397 134.104 16.8683 133.092 17.451C132.08 18.0337 130.83 18.4553 129.343 18.716C129.404 19.8967 129.711 20.8703 130.263 21.637C130.83 22.3883 131.597 22.764 132.563 22.764C132.931 22.764 133.306 22.7103 133.69 22.603C134.073 22.4803 134.418 22.2963 134.725 22.051H134.771ZM131.045 14.944C130.508 14.944 130.086 15.266 129.78 15.91C129.488 16.5387 129.343 17.3513 129.343 18.348C131.198 17.9187 132.095 17.152 132.034 16.048C132.034 15.7107 131.942 15.4423 131.758 15.243C131.589 15.0437 131.351 14.944 131.045 14.944ZM141.023 23.799C140.057 23.799 139.245 23.5613 138.585 23.086C137.941 22.6107 137.466 21.9973 137.159 21.246C136.853 20.4793 136.722 19.682 136.768 18.854C136.784 18.0413 137.021 17.29 137.481 16.6C137.941 15.8947 138.539 15.3427 139.275 14.944C140.011 14.53 140.763 14.323 141.529 14.323C142.189 14.323 142.787 14.4533 143.323 14.714C143.86 14.9747 144.159 15.358 144.22 15.864C144.251 16.186 144.167 16.439 143.967 16.623C143.783 16.807 143.492 16.899 143.093 16.899C142.679 16.899 142.373 16.807 142.173 16.623C141.974 16.439 141.798 16.186 141.644 15.864C141.491 15.5727 141.338 15.3503 141.184 15.197C141.031 15.0437 140.816 14.967 140.54 14.967C140.05 14.967 139.659 15.2277 139.367 15.749C139.091 16.2703 138.953 16.968 138.953 17.842C138.953 19.2527 139.237 20.4103 139.804 21.315C140.387 22.2197 141.23 22.672 142.334 22.672C143.132 22.672 143.76 22.488 144.22 22.12H144.243C144.289 22.12 144.335 22.1507 144.381 22.212C144.443 22.258 144.458 22.304 144.427 22.35C143.952 22.8867 143.431 23.2623 142.863 23.477C142.296 23.6917 141.683 23.799 141.023 23.799Z" fill="#DCCA87"/>
<rect x="224" y="14.5" width="119" height="1" fill="#FAFAFA"/>
<path d="M386.056 18.044C386.056 19.2247 385.673 20.1907 384.906 20.942C384.155 21.678 383.158 22.1073 381.916 22.23V24.484C381.916 24.5913 381.801 24.645 381.571 24.645C381.341 24.645 381.226 24.5913 381.226 24.484V22.276H381.157C380.467 22.276 379.731 22.184 378.949 22C378.167 21.8007 377.646 21.586 377.385 21.356C377.308 21.31 377.255 21.264 377.224 21.218C377.209 21.1567 377.193 21.057 377.178 20.919L377.086 17.262C377.071 17.2007 377.101 17.1623 377.178 17.147C377.27 17.1317 377.331 17.1547 377.362 17.216C377.776 18.044 378.144 18.734 378.466 19.286C378.803 19.838 379.202 20.344 379.662 20.804C380.137 21.264 380.659 21.5477 381.226 21.655V15.583L380.329 14.985C379.639 14.5403 379.087 14.157 378.673 13.835C378.259 13.4977 377.914 13.1067 377.638 12.662C377.362 12.202 377.224 11.6807 377.224 11.098C377.224 10.0247 377.607 9.18133 378.374 8.568C379.141 7.93933 380.091 7.556 381.226 7.418V5.463C381.226 5.40167 381.257 5.35567 381.318 5.325C381.395 5.29433 381.479 5.279 381.571 5.279C381.663 5.279 381.74 5.29433 381.801 5.325C381.878 5.35567 381.916 5.40167 381.916 5.463V7.372H382.077C382.614 7.372 383.173 7.42567 383.756 7.533C384.354 7.625 384.814 7.74 385.136 7.878C385.274 7.95467 385.366 8.03133 385.412 8.108C385.458 8.16933 385.481 8.246 385.481 8.338V11.719C385.481 11.765 385.443 11.8033 385.366 11.834C385.289 11.8493 385.236 11.834 385.205 11.788C385.159 11.696 385.006 11.3357 384.745 10.707C384.5 10.063 384.124 9.465 383.618 8.913C383.112 8.361 382.545 8.03133 381.916 7.924V13.237L382.583 13.674C383.35 14.1647 383.955 14.594 384.4 14.962C384.86 15.33 385.251 15.7747 385.573 16.296C385.895 16.802 386.056 17.3847 386.056 18.044ZM379.34 9.81C379.34 10.408 379.501 10.937 379.823 11.397C380.16 11.857 380.628 12.317 381.226 12.777V7.878C380.659 7.924 380.199 8.12333 379.846 8.476C379.509 8.82867 379.34 9.27333 379.34 9.81ZM381.916 21.701C383.158 21.6397 383.779 20.9037 383.779 19.493C383.779 18.757 383.61 18.1207 383.273 17.584C382.951 17.0473 382.499 16.549 381.916 16.089V21.701ZM393.321 13.26C394.747 13.26 395.867 13.6433 396.679 14.41C397.492 15.1767 397.898 16.2653 397.898 17.676C397.898 19.1327 397.454 20.2673 396.564 21.08C395.69 21.8773 394.563 22.276 393.183 22.276C392.463 22.276 391.819 22.138 391.251 21.862C390.684 21.5707 390.155 21.1337 389.664 20.551L389.641 20.505C389.641 20.4437 389.672 20.3977 389.733 20.367C389.795 20.321 389.841 20.321 389.871 20.367C390.163 20.689 390.531 20.9343 390.975 21.103C391.42 21.2563 391.88 21.333 392.355 21.333C393.352 21.333 394.096 21.0263 394.586 20.413C395.077 19.7843 395.322 18.9563 395.322 17.929C395.322 16.7637 395.054 15.8283 394.517 15.123C393.981 14.4023 393.206 14.042 392.194 14.042C391.75 14.042 391.351 14.088 390.998 14.18C390.661 14.272 390.454 14.3257 390.377 14.341C390.301 14.341 390.239 14.318 390.193 14.272C390.147 14.2107 390.132 14.1417 390.147 14.065L390.883 7.901C390.899 7.79367 390.922 7.72467 390.952 7.694C390.983 7.648 391.06 7.625 391.182 7.625C393.268 7.625 394.655 7.61733 395.345 7.602C396.035 7.57133 396.488 7.51767 396.702 7.441C396.917 7.36433 397.086 7.20333 397.208 6.958C397.224 6.92733 397.27 6.91967 397.346 6.935C397.423 6.935 397.454 6.96567 397.438 7.027L397.047 9.58C397.017 9.764 396.963 9.88667 396.886 9.948C396.825 10.0093 396.702 10.04 396.518 10.04L391.665 9.925C391.466 9.925 391.343 10.0323 391.297 10.247L390.86 13.674C391.719 13.398 392.539 13.26 393.321 13.26ZM404.849 15.491C403.776 15.491 402.909 15.123 402.25 14.387C401.591 13.6357 401.261 12.6697 401.261 11.489C401.261 10.6917 401.46 9.97867 401.859 9.35C402.258 8.72133 402.81 8.23833 403.515 7.901C404.22 7.54833 405.018 7.372 405.907 7.372C407.348 7.372 408.475 7.87033 409.288 8.867C410.116 9.84833 410.53 11.2053 410.53 12.938C410.53 14.4253 410.216 15.8743 409.587 17.285C408.958 18.6803 408.054 19.8457 406.873 20.781C405.692 21.701 404.312 22.207 402.733 22.299C402.672 22.299 402.633 22.2607 402.618 22.184C402.603 22.1227 402.618 22.0767 402.664 22.046C403.799 21.7087 404.757 21.0953 405.539 20.206C406.336 19.3167 406.927 18.2587 407.31 17.032C407.709 15.79 407.908 14.479 407.908 13.099C407.908 11.5503 407.686 10.293 407.241 9.327C406.796 8.361 406.206 7.878 405.47 7.878C404.903 7.878 404.496 8.16167 404.251 8.729C404.006 9.281 403.883 10.0783 403.883 11.121C403.883 12.317 404.036 13.214 404.343 13.812C404.665 14.3947 405.148 14.686 405.792 14.686C406.267 14.686 406.651 14.594 406.942 14.41H406.988C407.034 14.41 407.072 14.4407 407.103 14.502C407.149 14.548 407.157 14.594 407.126 14.64C406.559 15.2073 405.8 15.491 404.849 15.491Z" fill="white"/>
<path d="M8.78437 58L7.3625 54.3672H2.78437L1.37812 58H0.0343742L4.55 46.5312H5.66719L10.1594 58H8.78437ZM6.94844 53.1719L5.62031 49.6328C5.44844 49.1849 5.27135 48.6354 5.08906 47.9844C4.97448 48.4844 4.81042 49.0339 4.59687 49.6328L3.25312 53.1719H6.94844ZM13.6978 53.25V58H12.3697V46.5781H15.5025C16.9035 46.5781 17.9374 46.8464 18.6041 47.3828C19.2759 47.9193 19.6119 48.7266 19.6119 49.8047C19.6119 51.3151 18.8462 52.3359 17.315 52.8672L20.4166 58H18.8462L16.0806 53.25H13.6978ZM13.6978 52.1094H15.5181C16.4556 52.1094 17.1431 51.9245 17.5806 51.5547C18.0181 51.1797 18.2369 50.6198 18.2369 49.875C18.2369 49.1198 18.0129 48.5755 17.565 48.2422C17.1223 47.9089 16.4087 47.7422 15.4244 47.7422H13.6978V52.1094ZM29.9856 45.8438H31.0872V61.875H29.9856V45.8438ZM41.9453 46.5781H45.1719C46.6875 46.5781 47.7839 46.8047 48.4609 47.2578C49.138 47.7109 49.4766 48.4271 49.4766 49.4062C49.4766 50.0833 49.2865 50.6432 48.9062 51.0859C48.5312 51.5234 47.9818 51.8073 47.2578 51.9375V52.0156C48.9922 52.3125 49.8594 53.224 49.8594 54.75C49.8594 55.7708 49.513 56.5677 48.8203 57.1406C48.1328 57.7135 47.1693 58 45.9297 58H41.9453V46.5781ZM43.2734 51.4688H45.4609C46.3984 51.4688 47.0729 51.3229 47.4844 51.0312C47.8958 50.7344 48.1016 50.237 48.1016 49.5391C48.1016 48.8984 47.8724 48.4375 47.4141 48.1562C46.9557 47.8698 46.2266 47.7266 45.2266 47.7266H43.2734V51.4688ZM43.2734 52.5938V56.8672H45.6562C46.5781 56.8672 47.2708 56.6901 47.7344 56.3359C48.2031 55.9766 48.4375 55.4167 48.4375 54.6562C48.4375 53.9479 48.1979 53.4271 47.7188 53.0938C47.2448 52.7604 46.5208 52.5938 45.5469 52.5938H43.2734ZM60.1556 53.7109C60.1556 55.1068 59.8041 56.1979 59.1009 56.9844C58.3978 57.7656 57.4265 58.1562 56.1869 58.1562C55.4212 58.1562 54.7416 57.9766 54.1478 57.6172C53.5541 57.2578 53.0957 56.7422 52.7728 56.0703C52.4499 55.3984 52.2884 54.612 52.2884 53.7109C52.2884 52.3151 52.6374 51.2292 53.3353 50.4531C54.0332 49.6719 55.002 49.2812 56.2416 49.2812C57.4395 49.2812 58.39 49.6797 59.0931 50.4766C59.8015 51.2734 60.1556 52.3516 60.1556 53.7109ZM53.6322 53.7109C53.6322 54.8047 53.8509 55.638 54.2884 56.2109C54.7259 56.7839 55.3692 57.0703 56.2181 57.0703C57.0671 57.0703 57.7103 56.7865 58.1478 56.2188C58.5905 55.6458 58.8119 54.8099 58.8119 53.7109C58.8119 52.6224 58.5905 51.7969 58.1478 51.2344C57.7103 50.6667 57.0619 50.3828 56.2025 50.3828C55.3535 50.3828 54.7129 50.6615 54.2806 51.2188C53.8483 51.776 53.6322 52.6068 53.6322 53.7109ZM65.8425 57.0859C66.0717 57.0859 66.293 57.0703 66.5066 57.0391C66.7201 57.0026 66.8894 56.9661 67.0144 56.9297V57.9219C66.8737 57.9896 66.6654 58.0443 66.3894 58.0859C66.1185 58.1328 65.8737 58.1562 65.655 58.1562C63.9987 58.1562 63.1706 57.2839 63.1706 55.5391V50.4453H61.9441V49.8203L63.1706 49.2812L63.7175 47.4531H64.4675V49.4375H66.9519V50.4453H64.4675V55.4844C64.4675 56 64.5899 56.3958 64.8347 56.6719C65.0795 56.9479 65.4154 57.0859 65.8425 57.0859ZM72.1387 57.0859C72.3679 57.0859 72.5893 57.0703 72.8028 57.0391C73.0164 57.0026 73.1856 56.9661 73.3106 56.9297V57.9219C73.17 57.9896 72.9617 58.0443 72.6856 58.0859C72.4148 58.1328 72.17 58.1562 71.9512 58.1562C70.295 58.1562 69.4669 57.2839 69.4669 55.5391V50.4453H68.2403V49.8203L69.4669 49.2812L70.0137 47.4531H70.7637V49.4375H73.2481V50.4453H70.7637V55.4844C70.7637 56 70.8861 56.3958 71.1309 56.6719C71.3757 56.9479 71.7117 57.0859 72.1387 57.0859ZM76.9662 58H75.6694V45.8438H76.9662V58ZM83.9734 58.1562C82.7078 58.1562 81.7078 57.7708 80.9734 57C80.2443 56.2292 79.8797 55.1589 79.8797 53.7891C79.8797 52.4089 80.2182 51.3125 80.8953 50.5C81.5776 49.6875 82.4917 49.2812 83.6375 49.2812C84.7104 49.2812 85.5594 49.6354 86.1844 50.3438C86.8094 51.0469 87.1219 51.9766 87.1219 53.1328V53.9531H81.2234C81.2495 54.9583 81.5021 55.7214 81.9812 56.2422C82.4656 56.763 83.1453 57.0234 84.0203 57.0234C84.9422 57.0234 85.8536 56.8307 86.7547 56.4453V57.6016C86.2964 57.7995 85.8615 57.9401 85.45 58.0234C85.0437 58.112 84.5516 58.1562 83.9734 58.1562ZM83.6219 50.3672C82.9344 50.3672 82.3849 50.5911 81.9734 51.0391C81.5672 51.487 81.3276 52.1068 81.2547 52.8984H85.7312C85.7312 52.0807 85.549 51.4557 85.1844 51.0234C84.8198 50.5859 84.299 50.3672 83.6219 50.3672Z" fill="#AAAAAA"/>
</svg>
